HIERARCHY
ROOT Hips
{
	OFFSET 0.000000 0.000000 0.000000
	CHANNELS 6 Xposition Yposition Zposition Xrotation Yrotation Zrotation
	JOINT LeftUpLeg_virtual
	{
		OFFSET 0.000000 0.000000 0.000000
		CHANNELS 3 Xrotation Yrotation Zrotation
		JOINT LeftUpLeg
		{
			OFFSET 10.205400 -3.823500 0.155100
			CHANNELS 3 Xrotation Yrotation Zrotation
			JOINT LeftLeg
			{
				OFFSET 0.708757 -12.982077 0.567790
				CHANNELS 3 Xrotation Yrotation Zrotation
				JOINT LeftFoot
				{
					OFFSET -0.708756 -10.717838 -2.184338
					CHANNELS 3 Xrotation Yrotation Zrotation
					JOINT LeftToeBase
					{
						OFFSET 0.108149 -7.191104 7.560241
						CHANNELS 3 Xrotation Yrotation Zrotation
						JOINT LeftToe_End
						{
							OFFSET 0.070230 0.081724 4.490308
							CHANNELS 3 Xrotation Yrotation Zrotation
							End Site
							{
								OFFSET 0 0 0
							}
						}
					}
				}
			}
		}
	}
	JOINT RightUpLeg_virtual
	{
		OFFSET 0.000000 0.000000 0.000000
		CHANNELS 3 Xrotation Yrotation Zrotation
		JOINT RightUpLeg
		{
			OFFSET -10.205400 -3.823500 0.005500
			CHANNELS 3 Xrotation Yrotation Zrotation
			JOINT RightLeg
			{
				OFFSET -0.708756 -12.982134 0.610632
				CHANNELS 3 Xrotation Yrotation Zrotation
				JOINT RightFoot
				{
					OFFSET 0.708754 -10.717769 -1.945823
					CHANNELS 3 Xrotation Yrotation Zrotation
					JOINT RightToeBase
					{
						OFFSET -0.108140 -7.191069 7.372968
						CHANNELS 3 Xrotation Yrotation Zrotation
						JOINT RightToe_End
						{
							OFFSET -0.070227 0.081735 4.479403
							CHANNELS 3 Xrotation Yrotation Zrotation
							End Site
							{
								OFFSET 0 0 0
							}
						}
					}
				}
			}
		}
	}
	JOINT Spine_virtual
	{
		OFFSET 0.000000 0.000000 0.000000
		CHANNELS 3 Xrotation Yrotation Zrotation
		JOINT Spine
		{
			OFFSET 0.000000 6.876099 0.125700
			CHANNELS 3 Xrotation Yrotation Zrotation
			JOINT Spine1
			{
				OFFSET 0.000000 5.730043 0.104720
				CHANNELS 3 Xrotation Yrotation Zrotation
				JOINT Spine1_split
				{
					OFFSET 0.000000 5.730043 0.104720
					CHANNELS 3 Xrotation Yrotation Zrotation
					JOINT Spine2
					{
						OFFSET 0.000000 5.730043 0.104720
						CHANNELS 3 Xrotation Yrotation Zrotation
						JOINT Neck_virtual
						{
							OFFSET 0.000000 0.000000 0.000000
							CHANNELS 3 Xrotation Yrotation Zrotation
							JOINT Neck
							{
								OFFSET 0.000000 10.314075 0.188496
								CHANNELS 3 Xrotation Yrotation Zrotation
								JOINT Head
								{
									OFFSET 0.000000 7.643700 -2.377400
									CHANNELS 3 Xrotation Yrotation Zrotation
									JOINT HeadTop_End
									{
										OFFSET 0.000000 43.788605 -13.619600
										CHANNELS 3 Xrotation Yrotation Zrotation
										End Site
										{
											OFFSET 0 0 0
										}
									}
								}
							}
						}
						JOINT LeftShoulder_virtual
						{
							OFFSET 0.000000 0.000000 0.000000
							CHANNELS 3 Xrotation Yrotation Zrotation
							JOINT LeftShoulder
							{
								OFFSET 2.196100 4.412489 0.087492
								CHANNELS 3 Xrotation Yrotation Zrotation
								JOINT LeftShoulder_split
								{
									OFFSET 2.196100 4.412489 0.087492
									CHANNELS 3 Xrotation Yrotation Zrotation
									JOINT LeftArm
									{
										OFFSET 8.771219 -2.981674 -0.026999
										CHANNELS 3 Xrotation Yrotation Zrotation
										JOINT LeftForeArm
										{
											OFFSET 8.512804 0.000000 -0.000000
											CHANNELS 3 Xrotation Yrotation Zrotation
											JOINT LeftHand
											{
												OFFSET 18.484802 0.000000 -0.000000
												CHANNELS 3 Xrotation Yrotation Zrotation
												End Site
												{
													OFFSET 0 0 0
												}
											}
										}
									}
								}
							}
						}
						JOINT RightShoulder_virtual
						{
							OFFSET 0.000000 0.000000 0.000000
							CHANNELS 3 Xrotation Yrotation Zrotation
							JOINT RightShoulder
							{
								OFFSET -2.196100 4.412496 0.070690
								CHANNELS 3 Xrotation Yrotation Zrotation
								JOINT RightShoulder_split
								{
									OFFSET -2.196100 4.412496 0.070690
									CHANNELS 3 Xrotation Yrotation Zrotation
									JOINT RightArm
									{
										OFFSET -8.771282 -2.981682 -0.094208
										CHANNELS 3 Xrotation Yrotation Zrotation
										JOINT RightForeArm
										{
											OFFSET -8.494598 0.000000 0.000000
											CHANNELS 3 Xrotation Yrotation Zrotation
											JOINT RightHand
											{
												OFFSET -18.483803 0.000000 0.000001
												CHANNELS 3 Xrotation Yrotation Zrotation
												End Site
												{
													OFFSET 0 0 0
												}
											}
										}
									}
								}
							}
						}
					}
				}
			}
		}
	}
}
MOTION
Frames: 8
Frame Time: 0.03333333
2.250806 28.749485 -3.562744 0.000000 0.000000 0.000000 8.031889 0.926391 2.880912 -51.542486 -1.349967 20.150646 45.785323 -3.356793 5.298711 5.106748 5.137112 -33.487048 0.267973 -3.317507 1.405583 0.000000 0.000000 0.000000 8.533519 -0.102204 2.868453 -27.753821 -9.882529 -34.970186 37.270092 21.202447 -3.883271 -15.652164 -22.280403 44.073411 7.678071 12.801440 -15.064710 0.000000 0.000000 0.000000 8.143534 6.836003 1.454269 6.118635 0.427617 -0.907784 6.791193 -0.240152 -0.695937 0.051577 0.141868 -0.143926 0.000000 0.000000 0.000000 7.141354 3.087532 0.136400 7.269854 6.379053 -5.898525 -48.810642 -29.612890 -26.020627 0.000000 0.000000 0.000000 7.913180 1.010341 0.512351 2.706037 -25.484192 9.053583 3.357448 -6.335568 -4.078998 -74.937079 -33.647035 -23.978159 -10.596613 -12.850031 -1.806986 0.000000 0.000000 0.000000 6.322189 0.287967 -0.231932 -0.872651 23.067436 -12.504573 4.797878 -3.447662 5.468991 -35.848388 45.420198 19.840552 -14.046003 25.154526 5.129875 0.000000 0.000000 0.000000 
2.275112 28.630907 -3.505205 0.000000 0.000000 0.000000 8.072240 1.556929 2.613727 -52.453572 -1.788567 20.132771 46.571993 -3.431525 5.179726 4.881792 4.892658 -33.297743 -0.201828 -3.372592 1.515711 0.000000 0.000000 0.000000 8.617061 0.600767 2.574027 -27.425260 -9.949583 -34.855244 37.676703 21.208014 -4.108897 -16.008184 -22.658312 44.269642 7.620735 12.701243 -15.181707 0.000000 0.000000 0.000000 8.500574 6.997822 1.245980 5.960698 0.362466 -0.651818 6.714374 -0.186387 -0.781660 0.042972 0.202242 -0.134785 0.000000 0.000000 0.000000 7.045435 3.170537 0.210816 6.729603 6.331354 -5.109136 -48.129737 -27.935831 -27.908841 0.000000 0.000000 0.000000 7.774938 1.196188 0.485902 2.082696 -24.639711 8.078994 4.478531 -7.392355 -3.037893 -74.814361 -33.568846 -22.923436 -9.556662 -13.266901 -1.423966 0.000000 0.000000 0.000000 6.087188 0.406258 -0.244907 -1.473565 23.398582 -12.348353 6.251359 -3.931091 4.752617 -37.958493 45.285489 21.963124 -15.259165 26.696817 5.458644 0.000000 0.000000 0.000000 
2.298964 28.511902 -3.452164 0.000000 0.000000 0.000000 8.085317 2.012063 2.312943 -53.201621 -2.275689 20.116022 47.548761 -3.452430 5.094818 4.607943 4.759724 -32.685898 -0.730836 -3.457427 1.565694 0.000000 0.000000 0.000000 8.629143 1.192730 2.218431 -27.086445 -10.038315 -34.691128 38.138783 21.163051 -4.290424 -16.240021 -22.975744 44.376091 7.266619 12.642838 -15.038154 0.000000 0.000000 0.000000 8.860093 7.075655 0.958792 5.775030 0.428198 -0.287267 6.786379 -0.014656 -0.958510 0.081249 0.186519 -0.118534 0.000000 0.000000 0.000000 6.968250 3.339462 0.136318 5.947652 6.092886 -3.950334 -47.763721 -25.716881 -29.533492 0.000000 0.000000 0.000000 7.740682 1.394591 0.204312 1.366641 -23.674254 6.537511 5.363484 -8.052137 -1.602394 -75.009506 -34.109493 -23.096986 -8.246473 -12.243151 -0.992977 0.000000 0.000000 0.000000 6.003441 0.707050 -0.308876 -2.095747 23.578189 -11.859207 6.984930 -4.415043 4.001159 -39.033322 44.876843 23.657868 -16.627327 27.566684 5.881885 0.000000 0.000000 0.000000 
2.326482 28.401134 -3.406168 0.000000 0.000000 0.000000 8.026230 2.219713 2.023820 -53.722132 -2.744976 20.132121 48.638187 -3.486520 5.059974 4.402748 4.677795 -31.883661 -1.279652 -3.547092 1.526374 0.000000 0.000000 0.000000 8.543750 1.508767 1.872147 -26.876972 -10.178152 -34.560966 38.538297 21.067474 -4.397501 -16.351830 -23.173683 44.356218 6.846512 12.600826 -14.696142 0.000000 0.000000 0.000000 9.038989 7.037911 0.672498 5.630167 0.637781 0.088502 6.995399 0.270957 -1.179501 0.135771 0.133509 -0.113784 0.000000 0.000000 0.000000 6.986720 3.596807 -0.049316 5.020432 5.645026 -2.572094 -47.901312 -23.506243 -30.827451 0.000000 0.000000 0.000000 7.835301 1.607418 -0.248179 0.673813 -22.759664 4.822812 5.873105 -8.141682 -0.325181 -75.311209 -35.557808 -23.718505 -7.152482 -10.128733 -0.722720 0.000000 0.000000 0.000000 6.098237 1.113583 -0.374599 -2.653929 23.495750 -11.212067 7.114708 -4.820254 3.285543 -38.750733 44.705801 24.661354 -18.069940 27.802852 6.372237 0.000000 0.000000 0.000000 
2.365589 28.316063 -3.396715 0.000000 0.000000 0.000000 7.863527 2.157175 1.803388 -53.969798 -3.017064 20.202692 49.615720 -3.570397 5.044844 4.271401 4.596970 -31.034737 -1.845774 -3.643052 1.455787 0.000000 0.000000 0.000000 8.339901 1.484979 1.627208 -26.792708 -10.352012 -34.522986 38.720609 20.909183 -4.406459 -16.417458 -23.258205 44.166783 6.570557 12.564953 -14.286795 0.000000 0.000000 0.000000 8.905339 6.864383 0.489547 5.548788 0.967473 0.364411 7.324527 0.656290 -1.394905 0.181188 0.087032 -0.101938 0.000000 0.000000 0.000000 7.142233 3.930458 -0.287912 4.073154 5.050564 -1.160830 -48.407173 -21.705069 -31.752921 0.000000 0.000000 0.000000 8.013701 1.873441 -0.724037 0.097342 -22.154958 3.323676 6.358897 -8.079383 0.592256 -75.142196 -37.386260 -23.925815 -6.605718 -8.503529 -0.686458 0.000000 0.000000 0.000000 6.328625 1.554466 -0.444586 -3.095906 23.097383 -10.545725 6.730212 -5.106360 2.971072 -37.383265 44.825377 25.126184 -19.522839 28.085381 7.037386 0.000000 0.000000 0.000000 
2.404975 28.274887 -3.434536 0.000000 0.000000 0.000000 7.651475 1.865309 1.680451 -53.999674 -2.995096 20.337549 50.266224 -3.700296 5.015414 4.174918 4.511677 -30.242876 -2.303061 -3.744036 1.413164 0.000000 0.000000 0.000000 8.066138 1.208514 1.510670 -26.723375 -10.480737 -34.541404 38.607258 20.703883 -4.335921 -16.380441 -23.239290 43.923184 6.440863 12.557530 -13.934967 0.000000 0.000000 0.000000 8.524512 6.590032 0.440470 5.458980 1.365190 0.462820 7.720604 1.094242 -1.554008 0.178497 0.036574 -0.084835 0.000000 0.000000 0.000000 7.442943 4.316674 -0.518944 3.206803 4.366749 0.144336 -48.962604 -20.741628 -32.337988 0.000000 0.000000 0.000000 8.202065 2.201176 -1.108794 -0.335810 -21.995794 2.299958 6.970281 -8.140360 1.290617 -74.445975 -38.639821 -23.288947 -6.548333 -8.573013 -0.797769 0.000000 0.000000 0.000000 6.642480 1.979242 -0.486092 -3.451633 22.345229 -10.016330 5.989544 -5.253462 2.786343 -35.402073 44.977783 25.178606 -20.902064 28.973707 7.924449 0.000000 0.000000 0.000000 
2.417303 28.279039 -3.492533 0.000000 0.000000 0.000000 7.454707 1.496861 1.656233 -53.914580 -2.677715 20.499155 50.452995 -3.908315 4.976521 4.089990 4.456275 -29.661811 -2.459824 -3.844926 1.430310 0.000000 0.000000 0.000000 7.843115 0.892234 1.518064 -26.537822 -10.411928 -34.513636 38.170690 20.498748 -4.226280 -16.156109 -23.131598 43.794749 6.239296 12.615123 -13.731772 0.000000 0.000000 0.000000 8.010796 6.249101 0.480673 5.280951 1.761826 0.354520 8.121645 1.512842 -1.638370 0.155607 0.028656 -0.075899 0.000000 0.000000 0.000000 7.832420 4.690330 -0.722664 2.501261 3.688598 1.246478 -49.320557 -20.887936 -32.684866 0.000000 0.000000 0.000000 8.380164 2.552242 -1.364795 -0.564976 -22.419136 1.858071 7.727164 -8.199448 1.763340 -73.608648 -39.102491 -22.185976 -6.770025 -10.378384 -0.948638 0.000000 0.000000 0.000000 7.027721 2.342994 -0.512305 -3.830838 21.218066 -9.735864 5.366659 -4.936544 2.705913 -33.650983 44.988998 25.236897 -22.075340 30.414925 8.981725 0.000000 0.000000 0.000000 
2.401706 28.338331 -3.588127 0.000000 0.000000 0.000000 7.344389 1.129831 1.700571 -53.759596 -2.068739 20.680558 50.091825 -4.103866 4.882244 3.944325 4.537999 -29.242594 -2.180572 -3.947730 1.491916 0.000000 0.000000 0.000000 7.716513 0.749002 1.574439 -26.118053 -10.000329 -34.328708 37.509948 20.293744 -4.140897 -15.748176 -22.984065 43.814202 5.858565 12.748165 -13.707102 0.000000 0.000000 0.000000 7.552661 5.827924 0.549433 4.948378 2.120644 0.094717 8.517628 1.857493 -1.676774 0.149050 0.036744 -0.075840 0.000000 0.000000 0.000000 8.218822 5.010793 -0.894341 1.938701 3.076513 2.149050 -49.265376 -22.047589 -32.896472 0.000000 0.000000 0.000000 8.520616 2.880570 -1.498439 -0.580683 -23.504843 1.944741 8.363551 -8.283502 2.013885 -72.554470 -38.468226 -20.653587 -7.004001 -12.791523 -0.977171 0.000000 0.000000 0.000000 7.430438 2.616313 -0.555007 -4.249178 19.843165 -9.724841 4.678441 -4.416988 2.602011 -32.958275 44.943075 25.675284 -22.742225 31.429047 9.851833 0.000000 0.000000 0.000000 
